<svg width="256" height="256" viewBox="0 0 256 256" fill="none" xmlns="http://www.w3.org/2000/svg">
<path d="M127.996 0.411133C57.6365 0.411133 0.398254 57.6533 0.398254 128.009C0.398254 198.368 57.6365 255.61 127.996 255.61C198.351 255.61 255.594 198.368 255.594 128.009C255.594 57.6533 198.351 0.411133 127.996 0.411133ZM127.996 225.563C74.2029 225.563 30.4412 181.802 30.4412 128.009C30.4412 74.2158 74.2029 30.4541 127.996 30.4541C181.785 30.4541 225.547 74.2158 225.547 128.009C225.547 181.802 181.785 225.563 127.996 225.563Z" fill="white"/>
<path d="M164.668 88.3955L105.402 147.661L89.3162 131.575C83.449 125.708 73.9373 125.708 68.0701 131.575C62.2068 137.442 62.2068 146.954 68.0701 152.817L94.7811 179.528C97.7147 182.462 101.558 183.927 105.402 183.927C109.246 183.927 113.09 182.462 116.023 179.528L185.914 109.638C191.777 103.771 191.777 94.2588 185.914 88.3955C180.047 82.5244 170.535 82.5244 164.668 88.3955Z" fill="white"/>
</svg>
